<?xml version="1.0" encoding="utf-8"?>
<!-- Generator: Adobe Illustrator 20.1.0, SVG Export Plug-In . SVG Version: 6.00 Build 0)  -->
<svg version="1.1" id="Слой_1" xmlns="http://www.w3.org/2000/svg" xmlns:xlink="http://www.w3.org/1999/xlink" x="0px" y="0px"
	 width="130px" height="84px" viewBox="0 0 130 84" style="enable-background:new 0 0 130 84;" xml:space="preserve">
<style type="text/css">
	.st0{fill:#FFFFFF;}
	.st1{fill:#181919;}
	.st2{fill:#EFEFD8;}
</style>
<path class="st0" d="M99.1,0C82,0,68.1,18.8,68.1,42S82,84,99.1,84S130,65.2,130,42S116.2,0,99.1,0L99.1,0z"/>
<path class="st1" d="M90.1,18.9c-9.3,0-16.8,10.4-16.8,23.1s7.5,23.1,16.8,23.1s16.8-10.4,16.8-23.1S99.4,18.9,90.1,18.9z"/>
<path class="st0" d="M30.9,0C13.8,0,0,18.8,0,42s13.8,42,30.9,42s30.9-18.8,30.9-42S48,0,30.9,0L30.9,0z"/>
<path class="st1" d="M50.3,37c-2.8,0-5.1,2.2-5.1,5c0,2.8,2.3,5,5.1,5s5.1-2.2,5.1-5C55.4,39.2,53.1,37,50.3,37z"/>
<g>
	<path class="st2" d="M61.9,42C61.9,18.8,48,0,30.9,0S0,18.8,0,42c0,2.9,0.2,5.7,0.6,8.4c0,0-0.6-31.3,30.3-31.3
		s30.3,31.3,30.3,31.3C61.6,47.7,61.9,44.9,61.9,42z"/>
	<path class="st2" d="M30.9,84c15,0,27.5-14.4,30.3-33.6c0,0-0.9,21-30.3,21c-29.9,0-30.3-21-30.3-21C3.5,69.6,16,84,30.9,84z"/>
</g>
<polygon class="st0" points="86.8,28.7 75.3,43.3 82.7,41.6 79.3,52.2 91,36.7 83.9,38.1 "/>
</svg>
