<?xml version="1.0" encoding="utf-8"?>
<!-- Generator: Adobe Illustrator 20.1.0, SVG Export Plug-In . SVG Version: 6.00 Build 0)  -->
<svg version="1.1" id="Слой_1" xmlns="http://www.w3.org/2000/svg" xmlns:xlink="http://www.w3.org/1999/xlink" x="0px" y="0px"
	 width="130px" height="84px" viewBox="0 0 130 84" style="enable-background:new 0 0 130 84;" xml:space="preserve">
<style type="text/css">
	.st0{fill:#FFFFFF;}
	.st1{fill:#181919;}
	.st2{fill:#EFEFD8;}
</style>
<path class="st0" d="M30.9,0C13.8,0,0,18.8,0,42c0,23.2,13.8,42,30.9,42s30.9-18.8,30.9-42S48,0,30.9,0L30.9,0z"/>
<path class="st1" d="M23.1,42c0,12.8,7.5,23.1,16.8,23.1S56.7,54.8,56.7,42s-7.5-23.1-16.8-23.1S23.1,29.2,23.1,42z"/>
<path class="st0" d="M99.1,0C82,0,68.1,18.8,68.1,42S82,84,99.1,84S130,65.2,130,42S116.2,0,99.1,0L99.1,0z"/>
<path class="st1" d="M74.6,42c0,2.8,2.3,5,5.1,5s5.1-2.2,5.1-5c0-2.8-2.3-5-5.1-5S74.6,39.2,74.6,42z"/>
<g>
	<path class="st2" d="M68.1,42C68.1,18.8,82,0,99.1,0C116.2,0,130,18.8,130,42c0,2.9-0.2,5.7-0.6,8.4c0,0,0.6-31.3-30.3-31.3
		S68.8,50.4,68.8,50.4C68.4,47.7,68.1,44.9,68.1,42z"/>
	<path class="st2" d="M99.1,84c-15,0-27.5-14.4-30.3-33.6c0,0,0.9,21,30.3,21c29.9,0,30.3-21,30.3-21C126.5,69.6,114,84,99.1,84z"/>
</g>
<polygon class="st0" points="50.5,28.7 39,43.3 46.4,41.6 43,52.2 54.7,36.7 47.7,38.1 "/>
</svg>
