<?xml version="1.0" encoding="utf-8"?>
<!-- Generator: Adobe Illustrator 20.1.0, SVG Export Plug-In . SVG Version: 6.00 Build 0)  -->
<svg version="1.1" id="Слой_1" xmlns="http://www.w3.org/2000/svg" xmlns:xlink="http://www.w3.org/1999/xlink" x="0px" y="0px"
	 width="152px" height="81px" viewBox="0 0 152 81" style="enable-background:new 0 0 152 81;" xml:space="preserve">
<style type="text/css">
	.st0{fill:#FFFFFF;}
	.st1{fill:#181919;}
	.st2{display:none;}
	.st3{display:inline;fill:#181919;}
</style>
<path class="st0" d="M106.4,0C91.2,0,78.8,16.2,78.8,36.2s12.4,36.1,27.6,36.1S134,56.1,134,36.2S121.6,0,106.4,0L106.4,0z"/>
<path class="st1" d="M113,33.7c-7.4,0-13.4,8-13.4,17.8s6,17.8,13.4,17.8c7.4,0,13.4-8,13.4-17.8S120.4,33.7,113,33.7z"/>
<path class="st0" d="M45.6,0C30.4,0,18,16.2,18,36.2s12.4,36.1,27.6,36.1s27.6-16.2,27.6-36.1S60.8,0,45.6,0L45.6,0z"/>
<path class="st1" d="M51.8,33.7c-7.4,0-13.4,8-13.4,17.8s6,17.8,13.4,17.8s13.4-8,13.4-17.8S59.2,33.7,51.8,33.7z"/>
<ellipse class="st0" cx="57.7" cy="43.7" rx="2.7" ry="3.6"/>
<ellipse class="st0" cx="119.4" cy="43.7" rx="2.7" ry="3.6"/>
<g class="st2">
	<path class="st3" d="M155.9,39c0-27.6-17-50-38-50s-38,22.4-38,50c0,3.4,0.3,6.8,0.8,10c0,0-0.8,8,37.2,8s37.2-8,37.2-8
		C155.7,45.8,155.9,42.4,155.9,39z"/>
	<path class="st3" d="M72.2,39c0-27.6-17-50-38-50s-38,22.4-38,50c0,3.4,0.3,6.8,0.8,10c0,0-0.8,8,37.2,8s37.2-8,37.2-8
		C72,45.8,72.2,42.4,72.2,39z"/>
	<path class="st3" d="M117.9,89c18.4,0,33.7-17.2,37.2-40c0,0,0.8,5-37.2,5s-37.2-5-37.2-5C84.2,71.8,99.6,89,117.9,89z"/>
	<path class="st3" d="M34.2,89C52.6,89,68,71.8,71.5,49c0,0,0.8,5-37.2,5C-4.1,54-3,49-3,49C0.5,71.8,15.8,89,34.2,89z"/>
</g>
<path class="st1" d="M152,42.7h-2.1c-1.6-17.8-16.7-31.8-34.9-31.8c-15.1,0-28,9.6-32.9,23c-3.7-1.5-7.9-1.5-11.7-0.1
	c-5-13.4-17.8-22.9-32.9-22.9c-18.2,0-33.3,14-34.9,31.8H0v6.5h2.5C4.2,67,19.2,81,37.4,81c19.3,0,35.1-15.7,35.1-35.1
	c0-2-0.2-3.9-0.5-5.8c2.6-1.2,5.7-1.2,8.3,0.1c-0.3,1.9-0.5,3.8-0.5,5.7C79.9,65.3,95.6,81,115,81c18.2,0,33.3-14,34.9-31.8h2.1
	V42.7z M37.4,74.5c-15.8,0-28.6-12.8-28.6-28.6s12.8-28.6,28.6-28.6C53.2,17.3,66,30.2,66,45.9S53.2,74.5,37.4,74.5z M115,74.5
	c-15.8,0-28.6-12.8-28.6-28.6S99.2,17.3,115,17.3s28.6,12.8,28.6,28.6S130.7,74.5,115,74.5z"/>
</svg>
